<svg xmlns="http://www.w3.org/2000/svg" version="1.1" xmlns:xlink="http://www.w3.org/1999/xlink" xmlns:svgjs="http://svgjs.dev/svgjs" viewBox="0 0 8.248211843123473 2.291754321397947"><g transform="matrix(1,0,0,1,2.244370725795281,0.5392352985753662)"><g><path d=" M 0.8302147435647809 0.3691368033370679 Q 0.7904193261046508 0.28542920109334613 0.7149452585078526 0.23945863264802358 Q 0.6394711909110543 0.19348806420270104 0.5392965193734858 0.19348806420270104 Q 0.4391218478359171 0.19348806420270104 0.3588448850284135 0.23945863264802358 Q 0.2785679222209099 0.28542920109334613 0.23259735377558735 0.3711951869987987 Q 0.18662678533026478 0.4569611729042513 0.18662678533026478 0.569486146412205 Q 0.18662678533026478 0.6820111199201588 0.23259735377558735 0.7670909779383677 Q 0.2785679222209099 0.8521708359565767 0.3588448850284135 0.8981414044018993 Q 0.4391218478359171 0.9441119728472218 0.5392965193734858 0.9441119728472218 Q 0.6792666083711842 0.9441119728472218 0.7698354894873423 0.8604043706035001 Q 0.8604043706035001 0.7766967683597784 0.8754991841228598 0.6339821678131053 L 0.49401207881540676 0.6339821678131053 L 0.49401207881540676 0.5324352405010495 L 1.008607994248122 0.5324352405010495 L 1.008607994248122 0.6284931447151564 Q 0.9976299480522242 0.7465071413210591 0.9345061824258112 0.8446234291968968 Q 0.871382416799398 0.9427397170727345 0.768463233712855 0.9996883317139551 Q 0.665544050626312 1.0566369463551757 0.5392965193734858 1.0566369463551757 Q 0.40618770924822334 1.0566369463551757 0.29640724728924406 0.9941993086160061 Q 0.18662678533026478 0.9317616708768366 0.12281689181660807 0.8206089531433701 Q 0.05900699830295136 0.7094562354099037 0.05900699830295136 0.569486146412205 Q 0.05900699830295136 0.4295160574145065 0.12281689181660807 0.31767721179379627 Q 0.18662678533026478 0.20583836617308615 0.29640724728924406 0.1434007284339167 Q 0.40618770924822334 0.08096309069474716 0.5392965193734858 0.08096309069474716 Q 0.6916169103415695 0.08096309069474716 0.8089447790602285 0.15643715829154548 Q 0.9262726477788876 0.23191122588834379 0.9797906229838901 0.3691368033370679 L 0.8302147435647809 0.3691368033370679 M 1.221328410743356 0.14957587941910933 Q 1.1966278068025855 0.12487527547833888 1.1966278068025855 0.08919662534167072 Q 1.1966278068025855 0.053517975205002344 1.221328410743356 0.028817371264232117 Q 1.2460290146841264 0.0041167673234616675 1.2817076648207946 0.0041167673234616675 Q 1.3160140591829756 0.0041167673234616675 1.3400285352365022 0.028817371264232117 Q 1.364043011290029 0.053517975205002344 1.364043011290029 0.08919662534167072 Q 1.364043011290029 0.12487527547833888 1.3400285352365022 0.14957587941910933 Q 1.3160140591829756 0.17427648335987955 1.2817076648207946 0.17427648335987955 Q 1.2460290146841264 0.17427648335987955 1.221328410743356 0.14957587941910933 M 1.3420869188982332 0.29640724728924406 L 1.3420869188982332 1.0484034117082521 L 1.2172116434198943 1.0484034117082521 L 1.2172116434198943 0.29640724728924406 L 1.3420869188982332 0.29640724728924406 M 1.9046729237256386 0.3993264303757871 L 1.746863509659606 0.3993264303757871 L 1.746863509659606 1.0484034117082521 L 1.6219882341812668 1.0484034117082521 L 1.6219882341812668 0.3993264303757871 L 1.5245580741926728 0.3993264303757871 L 1.5245580741926728 0.29640724728924406 L 1.6219882341812668 0.29640724728924406 L 1.6219882341812668 0.24288927208424171 Q 1.6219882341812668 0.11664174083141554 1.687170383469411 0.05832087041570777 Q 1.7523525327575549 0 1.896439389078715 0 L 1.896439389078715 0.10429143886103032 Q 1.8141040426094808 0.10429143886103032 1.7804837761345431 0.13653944956148045 Q 1.746863509659606 0.1687874602619306 1.746863509659606 0.24288927208424171 L 1.746863509659606 0.29640724728924406 L 1.9046729237256386 0.29640724728924406 L 1.9046729237256386 0.3993264303757871 M 2.2463364696088366 0.3993264303757871 L 2.2463364696088366 0.842565045535166 Q 2.2463364696088366 0.8974552765146556 2.2696648177751193 0.9200974967936951 Q 2.2929931659414025 0.9427397170727345 2.3506279084698667 0.9427397170727345 L 2.442569045360512 0.9427397170727345 L 2.442569045360512 1.0484034117082521 L 2.330044071852558 1.0484034117082521 Q 2.2257526329915276 1.0484034117082521 2.1736069135610125 1.0003744596011988 Q 2.1214611941304975 0.9523455074941453 2.1214611941304975 0.842565045535166 L 2.1214611941304975 0.3993264303757871 L 2.0240310341419034 0.3993264303757871 L 2.0240310341419034 0.29640724728924406 L 2.1214611941304975 0.29640724728924406 L 2.1214611941304975 0.1070359504100048 L 2.2463364696088366 0.1070359504100048 L 2.2463364696088366 0.29640724728924406 L 2.442569045360512 0.29640724728924406 L 2.442569045360512 0.3993264303757871 L 2.2463364696088366 0.3993264303757871 M 3.6076329592095964 0.09880241576308135 L 3.6076329592095964 1.0484034117082521 L 3.4827576837312577 1.0484034117082521 L 3.4827576837312577 0.34031943207283577 L 3.167138855599192 1.0484034117082521 L 3.0793144860320085 1.0484034117082521 L 2.762323402125456 0.3389471762983485 L 2.762323402125456 1.0484034117082521 L 2.637448126647117 1.0484034117082521 L 2.637448126647117 0.09880241576308135 L 2.7719291925468665 0.09880241576308135 L 3.1232266708156002 0.8837327187697832 L 3.474524149084334 0.09880241576308135 L 3.6076329592095964 0.09880241576308135 M 3.8629040254621727 0.4672530912129056 Q 3.909560721794739 0.3801148495329658 3.99120994037673 0.3320858974259123 Q 4.072859158958721 0.28405694531885883 4.17303383049629 0.28405694531885883 Q 4.271836246259371 0.28405694531885883 4.344565802307194 0.32659687432796336 Q 4.417295358355018 0.3691368033370679 4.452974008491687 0.43363282473796816 L 4.452974008491687 0.29640724728924406 L 4.579221539744513 0.29640724728924406 L 4.579221539744513 1.0484034117082521 L 4.452974008491687 1.0484034117082521 L 4.452974008491687 0.9084333227105535 Q 4.415923102580531 0.9743015998859411 4.3425074186454635 1.0175276567822893 Q 4.269091734710396 1.0607537136786374 4.171661574721802 1.0607537136786374 Q 4.071486903184233 1.0607537136786374 3.9905238124894864 1.0113525057970967 Q 3.909560721794739 0.961951297915556 3.8629040254621727 0.8727546725738853 Q 3.816247329129607 0.7835580472322146 3.816247329129607 0.6696608179497736 Q 3.816247329129607 0.5543913328928454 3.8629040254621727 0.4672530912129056 M 4.418667614129506 0.5228294500796389 Q 4.3843612197673245 0.4597056844532257 4.326040349351617 0.42608541797828836 Q 4.267719478935909 0.39246515150335093 4.197734434437059 0.39246515150335093 Q 4.12774938993821 0.39246515150335093 4.0701146474097465 0.4253992900910447 Q 4.012479904881282 0.4583334286787385 3.978173510519101 0.5214571943051516 Q 3.94386711615692 0.5845809599315647 3.94386711615692 0.6696608179497736 Q 3.94386711615692 0.7561129317424697 3.978173510519101 0.8199228252561265 Q 4.012479904881282 0.8837327187697832 4.0701146474097465 0.9173529852447206 Q 4.12774938993821 0.9509732517196581 4.197734434437059 0.9509732517196581 Q 4.267719478935909 0.9509732517196581 4.326040349351617 0.9173529852447206 Q 4.3843612197673245 0.8837327187697832 4.418667614129506 0.8199228252561265 Q 4.452974008491687 0.7561129317424697 4.452974008491687 0.6710330737242609 Q 4.452974008491687 0.5859532157060519 4.418667614129506 0.5228294500796389 M 5.069837821555475 0.327283002215207 Q 5.143253505490542 0.28405694531885883 5.240683665479136 0.28405694531885883 Q 5.340858337016705 0.28405694531885883 5.422507555598696 0.3320858974259123 Q 5.504156774180687 0.3801148495329658 5.550813470513253 0.4672530912129056 Q 5.597470166845819 0.5543913328928454 5.597470166845819 0.6696608179497736 Q 5.597470166845819 0.7835580472322146 5.550813470513253 0.8727546725738853 Q 5.504156774180687 0.961951297915556 5.422507555598696 1.0113525057970967 Q 5.340858337016705 1.0607537136786374 5.240683665479136 1.0607537136786374 Q 5.14462576126503 1.0607537136786374 5.071210077329963 1.0175276567822893 Q 4.997794393394895 0.9743015998859411 4.959371231709252 0.9098055784850407 L 4.959371231709252 1.4051899130749348 L 4.8344959562309135 1.4051899130749348 L 4.8344959562309135 0.29640724728924406 L 4.959371231709252 0.29640724728924406 L 4.959371231709252 0.43500508051245546 Q 4.996422137620407 0.3705090591115551 5.069837821555475 0.327283002215207 M 5.435543985456325 0.5214571943051516 Q 5.4012375910941435 0.4583334286787385 5.342916720678436 0.4253992900910447 Q 5.284595850262728 0.39246515150335093 5.214610805763879 0.39246515150335093 Q 5.145998017039517 0.39246515150335093 5.087677146623809 0.42608541797828836 Q 5.029356276208102 0.4597056844532257 4.994363753958677 0.5235155779668824 Q 4.959371231709252 0.5873254714805392 4.959371231709252 0.6710330737242609 Q 4.959371231709252 0.7561129317424697 4.994363753958677 0.8199228252561265 Q 5.029356276208102 0.8837327187697832 5.087677146623809 0.9173529852447206 Q 5.145998017039517 0.9509732517196581 5.214610805763879 0.9509732517196581 Q 5.284595850262728 0.9509732517196581 5.342916720678436 0.9173529852447206 Q 5.4012375910941435 0.8837327187697832 5.435543985456325 0.8199228252561265 Q 5.469850379818506 0.7561129317424697 5.469850379818506 0.6696608179497736 Q 5.469850379818506 0.5845809599315647 5.435543985456325 0.5214571943051516" fill="#731dd8" fill-rule="nonzero"></path></g><g></g><g transform="matrix(-1,0,0,1,-2.297041616047635,0)" clip-path="url(&quot;#SvgjsClipPath1001&quot;)"><g clip-path="url(&quot;#SvgjsClipPath100034310139-71aa-43ab-b105-c0cb97eae9ac&quot;)"><path d=" M -1.7655890064815947 0.5100755899943741 L -0.5267159658181484 0.5100755899943741 L -0.5267159658181484 1.211911229172704 L -1.7655890064815947 1.211911229172704 Z" fill="#0cca4a" transform="matrix(1,0,0,1,0,0)" fill-rule="nonzero"></path></g><g clip-path="url(&quot;#SvgjsClipPath100034310139-71aa-43ab-b105-c0cb97eae9ac&quot;)"><path d=" M -1.8569176873846853 0.14873672433736546 L -0.43142002340933683 0.14873672433736546 L -0.43142002340933683 0.5140471497249115 L -1.8569176873846853 0.5140471497249115 Z" fill="#0cca4a" transform="matrix(1,0,0,1,0,0)" fill-rule="nonzero"></path></g><g clip-path="url(&quot;#SvgjsClipPath100034310139-71aa-43ab-b105-c0cb97eae9ac&quot;)"><path d=" M -1.6006833131679663 0.593774921848002 L -1.6930263751277743 0.6861222820326266 L -1.6930263751277743 0.7652096186580439 L -1.5215916783177326 0.593774921848002 L -1.6006833131679663 0.593774921848002 Z" fill="#731dd8" transform="matrix(1,0,0,1,0,0)" fill-rule="nonzero"></path></g><g clip-path="url(&quot;#SvgjsClipPath100034310139-71aa-43ab-b105-c0cb97eae9ac&quot;)"><path d=" M -1.4592115415544344 0.593774921848002 L -1.6930263751277743 0.8275897554213419 L -1.6930263751277743 0.9066770920467592 L -1.3801242049290172 0.593774921848002 L -1.4592115415544344 0.593774921848002 Z" fill="#731dd8" transform="matrix(1,0,0,1,0,0)" fill-rule="nonzero"></path></g><g clip-path="url(&quot;#SvgjsClipPath100034310139-71aa-43ab-b105-c0cb97eae9ac&quot;)"><path d=" M -1.3177483663905358 0.593774921848002 L -1.6930263751277743 0.9690529305852403 L -1.6930263751277743 1.0481445654354746 L -1.2386610297651184 0.593774921848002 L -1.3177483663905358 0.593774921848002 Z" fill="#731dd8" transform="matrix(1,0,0,1,0,0)" fill-rule="nonzero"></path></g><g clip-path="url(&quot;#SvgjsClipPath100034310139-71aa-43ab-b105-c0cb97eae9ac&quot;)"><path d=" M -1.220960939970365 0.6384549688165463 L -1.6930263751277743 1.1105204039739558 L -1.6930263751277743 1.1326777529035224 L -1.6360920892071071 1.1326777529035224 L -1.220960939970365 0.7175423054419635 L -1.220960939970365 0.6384549688165463 Z" fill="#731dd8" transform="matrix(1,0,0,1,0,0)" fill-rule="nonzero"></path></g><g clip-path="url(&quot;#SvgjsClipPath100034310139-71aa-43ab-b105-c0cb97eae9ac&quot;)"><path d=" M -1.220960939970365 0.7799224422052615 L -1.573711952443809 1.1326777529035224 L -1.4946246158183918 1.1326777529035224 L -1.220960939970365 0.8590097788306789 L -1.220960939970365 0.7799224422052615 Z" fill="#731dd8" transform="matrix(1,0,0,1,0,0)" fill-rule="nonzero"></path></g><g clip-path="url(&quot;#SvgjsClipPath100034310139-71aa-43ab-b105-c0cb97eae9ac&quot;)"><path d=" M -1.220960939970365 0.9213899155939768 L -1.4322487772799106 1.1326777529035224 L -1.3531571424296764 1.1326777529035224 L -1.220960939970365 1.0004772522193943 L -1.220960939970365 0.9213899155939768 Z" fill="#731dd8" transform="matrix(1,0,0,1,0,0)" fill-rule="nonzero"></path></g><g clip-path="url(&quot;#SvgjsClipPath100034310139-71aa-43ab-b105-c0cb97eae9ac&quot;)"><path d=" M -1.2907813038911953 1.1326777529035224 L -1.220960939970365 1.1326777529035224 L -1.220960939970365 1.0628530907578755 L -1.2907813038911953 1.1326777529035224 Z" fill="#731dd8" transform="matrix(1,0,0,1,0,0)" fill-rule="nonzero"></path></g><g clip-path="url(&quot;#SvgjsClipPath100034310139-71aa-43ab-b105-c0cb97eae9ac&quot;)"><path d=" M -1.0760806760772703 0.593774921848002 L -1.0760806760772703 0.6657916786501143 L -1.0040639192751577 0.593774921848002 L -1.0760806760772703 0.593774921848002 Z" fill="#731dd8" transform="matrix(1,0,0,1,0,0)" fill-rule="nonzero"></path></g><g clip-path="url(&quot;#SvgjsClipPath100034310139-71aa-43ab-b105-c0cb97eae9ac&quot;)"><path d=" M -0.9416837825118598 0.593774921848002 L -1.0760806760772703 0.7281718154134122 L -1.0760806760772703 0.8072591520388298 L -0.8625964458864426 0.593774921848002 L -0.9416837825118598 0.593774921848002 Z" fill="#731dd8" transform="matrix(1,0,0,1,0,0)" fill-rule="nonzero"></path></g><g clip-path="url(&quot;#SvgjsClipPath100034310139-71aa-43ab-b105-c0cb97eae9ac&quot;)"><path d=" M -1.0760806760772703 0.8696392888021277 L -1.0760806760772703 0.9487266254275449 L -0.7211289724977272 0.593774921848002 L -0.8002163091231445 0.593774921848002 L -1.0760806760772703 0.8696392888021277 Z" fill="#731dd8" transform="matrix(1,0,0,1,0,0)" fill-rule="nonzero"></path></g><g clip-path="url(&quot;#SvgjsClipPath100034310139-71aa-43ab-b105-c0cb97eae9ac&quot;)"><path d=" M -0.6587488357344293 0.593774921848002 L -1.0760806760772703 1.0111067621908432 L -1.0760806760772703 1.0901940988162604 L -0.6040152409198607 0.6181286636588507 L -0.6040152409198607 0.593774921848002 L -0.6587488357344293 0.593774921848002 Z" fill="#731dd8" transform="matrix(1,0,0,1,0,0)" fill-rule="nonzero"></path></g><g clip-path="url(&quot;#SvgjsClipPath100034310139-71aa-43ab-b105-c0cb97eae9ac&quot;)"><path d=" M -0.6040152409198607 0.6805045021973319 L -1.0561841934012346 1.1326777529035224 L -0.9770968567758171 1.1326777529035224 L -0.6040152409198607 0.7595918388227494 L -0.6040152409198607 0.6805045021973319 Z" fill="#731dd8" transform="matrix(1,0,0,1,0,0)" fill-rule="nonzero"></path></g><g clip-path="url(&quot;#SvgjsClipPath100034310139-71aa-43ab-b105-c0cb97eae9ac&quot;)"><path d=" M -0.6040152409198607 0.8219719755860474 L -0.9147167200125191 1.1326777529035224 L -0.8356293833871018 1.1326777529035224 L -0.6040152409198607 0.9010636104362811 L -0.6040152409198607 0.8219719755860474 Z" fill="#731dd8" transform="matrix(1,0,0,1,0,0)" fill-rule="nonzero"></path></g><g clip-path="url(&quot;#SvgjsClipPath100034310139-71aa-43ab-b105-c0cb97eae9ac&quot;)"><path d=" M -0.6040152409198607 0.9634394489747625 L -0.7732492466238039 1.1326777529035224 L -0.6941619099983865 1.1326777529035224 L -0.6040152409198607 1.04252678560018 L -0.6040152409198607 0.9634394489747625 Z" fill="#731dd8" transform="matrix(1,0,0,1,0,0)" fill-rule="nonzero"></path></g><g clip-path="url(&quot;#SvgjsClipPath100034310139-71aa-43ab-b105-c0cb97eae9ac&quot;)"><path d=" M -1.8970416160476349 0.11624644294869513 L -1.8970416160476349 0.5458712062670086 L -1.7947438654125847 0.5458712062670086 L -1.7947438654125847 1.2403353898848715 L -0.5023106453095005 1.2403353898848715 L -0.5023106453095005 0.5458712062670086 L -0.4000128946744501 0.5458712062670086 L -0.4000128946744501 0.11624644294869513 Z M -1.261231008277079 1.1805900649341488 L -1.734989944012228 1.1805900649341488 L -1.734989944012228 0.5458712062670086 L -1.1789973710859107 0.5458712062670086 L -1.1789973710859107 1.1805900649341488 Z M -0.5620559702602235 0.5745403657937221 L -0.5620559702602235 1.1805900649341488 L -1.118044244961724 1.1805900649341488 L -1.118044244961724 0.5458712062670086 L -0.5620559702602235 0.5458712062670086 Z M -0.4644003024270993 0.48146230739027607 L -1.8326456118453522 0.48146230739027607 L -1.8326456118453522 0.18062955247652823 L -0.4643960042022828 0.18062955247652823 Z" fill="#0cca4a" transform="matrix(1,0,0,1,0,0)" fill-rule="nonzero"></path></g><g clip-path="url(&quot;#SvgjsClipPath100034310139-71aa-43ab-b105-c0cb97eae9ac&quot;)"><path d=" M -1.152442938168964 0.15766413728144124 L -1.1754814231859334 0.15427713612596117 L -1.1754814231859334 0.13099365229444565 C -1.1754814231859334 0.00759161780989509 -1.0820337174482593 -0.16813270736711264 -0.9770065940546685 -0.18968830482235544 C -0.9406865943544084 -0.1971586195536041 -0.8720912245063088 -0.19194487285106956 -0.8212174355770461 -0.07324509631587803 C -0.7922903825613361 -0.0057629666952773995 -0.7938377434953119 0.04954659024471583 -0.8258122379059902 0.09109323132195907 C -0.8724350824916365 0.15166381543746887 -0.9730092449752314 0.16466164728286353 -1.0507641319075032 0.16466164728286353 C -1.084777440286345 0.16466386253960263 -1.1187505993365978 0.16232583823567115 -1.1524429381689634 0.15766413728144124 Z M -0.9661664710672064 -0.1368717182759895 C -1.0322215900486964 -0.12331511720443702 -1.1095380580496748 0.0027604131160381407 -1.1202965147656219 0.10721157438420492 C -1.0480390573737801 0.11418329503672803 -0.9119959437036125 0.11471197668916999 -0.8685279961333487 0.05818172390126253 C -0.8493665099009515 0.033252019964989665 -0.8501229974686726 -0.0038072744037247475 -0.8707802659372466 -0.05200326927224669 C -0.8880290421262576 -0.0922518464548774 -0.9162683791713113 -0.13796776560422203 -0.955532662870941 -0.13796776560422203 C -0.959105193505808 -0.1379626414903356 -0.9626680051680271 -0.13759541555102023 -0.9661664710672064 -0.13687171827599004 Z" fill="#731dd8" transform="matrix(1,0,0,1,0,0)" fill-rule="nonzero"></path></g><g clip-path="url(&quot;#SvgjsClipPath100034310139-71aa-43ab-b105-c0cb97eae9ac&quot;)"><path d=" M -1.4712293781416448 0.09109323132195907 C -1.5032038725523231 0.049546590244715305 -1.5047555317111152 -0.005745773796010933 -1.4758241804705887 -0.07324509631587803 C -1.424954689766142 -0.19194487285106956 -1.3563894074917588 -0.19714142665433762 -1.3200350219929664 -0.18968830482235544 C -1.2150078985993755 -0.16813270736711264 -1.1215601928617014 0.00760021425952806 -1.1215601928617014 0.13099365229444565 L -1.1215601928617014 0.15427713612596117 L -1.144598677878671 0.15766413728144124 C -1.1782923788451711 0.16232660283059325 -1.2122670199680354 0.16466463029595357 -1.2462817823649504 0.1646616472828646 C -1.3240280728475868 0.16466164728286353 -1.4246108317808144 0.15165951721265242 -1.4712293781416448 0.09109323132195907 Z M -1.3308751449804284 -0.13687171827598976 C -1.3757400156160866 -0.14601404246089522 -1.407491002336302 -0.09579788192857185 -1.4262613501103887 -0.05200326927224694 C -1.4469186185789624 -0.0038072744037247475 -1.4476751061466833 0.03326491463943965 -1.4285179181391026 0.05818172390126253 C -1.385045672344023 0.1147162749139865 -1.2490025586738553 0.11417040036227805 -1.1767493995068299 0.10721157438420492 C -1.1875078562227765 0.002760413116037863 -1.2648157277741219 -0.1233151172044373 -1.3308751449804284 -0.13687171827598976 Z" fill="#731dd8" transform="matrix(1,0,0,1,0,0)" fill-rule="nonzero"></path></g><g clip-path="url(&quot;#SvgjsClipPath100034310139-71aa-43ab-b105-c0cb97eae9ac&quot;)"><path d=" M -1.0967924958374238 0.05996627449946834 C -1.0716107341886902 0.08852033327999909 -1.074344520606173 0.13208181386148954 -1.1028985793867045 0.15726357551022369 C -1.1314526381672358 0.18244533715895672 -1.1750141187487264 0.1797115507414737 -1.20019588039746 0.15115749196094297 C -1.2253776420461935 0.12260343318041111 -1.2226438556287105 0.07904195259892072 -1.1940897968481794 0.053860190950187625 C -1.1655357380676477 0.02867842930145348 -1.1219742574861575 0.031412215718936515 -1.0967924958374238 0.05996627449946834 Z" fill="#731dd8" transform="matrix(1,0,0,1,0,0)" fill-rule="nonzero"></path></g><g clip-path="url(&quot;#SvgjsClipPath100034310139-71aa-43ab-b105-c0cb97eae9ac&quot;)"><path d=" M -1.6919131349002752 0.5947721100054528 L -1.6919131349002752 0.6123346566060754 L -1.6743548865244693 0.5947721100054528 L -1.6919131349002752 0.5947721100054528 Z" fill="#212245" transform="matrix(1,0,0,1,0,0)" fill-rule="nonzero"></path></g><g clip-path="url(&quot;#SvgjsClipPath100034310139-71aa-43ab-b105-c0cb97eae9ac&quot;)"><path d=" M -0.6040152409198607 1.1333095919515626 L -0.6040152409198607 1.1157470453509397 L -0.6215734892956664 1.1333095919515626 L -0.6040152409198607 1.1333095919515626 Z" fill="#212245" transform="matrix(1,0,0,1,0,0)" fill-rule="nonzero"></path></g><g clip-path="url(&quot;#SvgjsClipPath100034310139-71aa-43ab-b105-c0cb97eae9ac&quot;)"><path d=" M -1.1789930728610947 0.10555675782981427 L -1.1789930728610947 0.4247343362608056 L -1.1789930728610947 0.7761013203433053 L -1.1789930728610947 1.0532207689438775 L -1.1789930728610947 1.2403096005359724 L -1.1354434590193159 1.2403096005359724 L -1.118044244961724 1.2403096005359724 L -1.118044244961724 1.1746800058113256 L -1.118044244961724 0.8233173199536427 L -1.118044244961724 0.5461935731282537 L -1.118044244961724 0.3798092904777153 L -1.118044244961724 0.10555675782981427 L -1.1789930728610947 0.10555675782981427 Z" fill="#731dd8" transform="matrix(1,0,0,1,0,0)" fill-rule="nonzero"></path></g><g clip-path="url(&quot;#SvgjsClipPath100034310139-71aa-43ab-b105-c0cb97eae9ac&quot;)"><path d=" M -1.7947223742885012 0.5458712062670087 L -0.5023192417591338 0.5458712062670087 L -0.5023192417591338 0.6340020079065498 L -1.7947223742885012 0.6340020079065498 Z" fill="#731dd8" transform="matrix(1,0,0,1,0,0)" fill-rule="nonzero"></path></g></g></g><defs><clipPath id="SvgjsClipPath1001"><path d=" M -1.8970416160476349 -0.19190618882772015 h 1.497041616047635 v 1.4322157893636924 h -1.497041616047635 Z"></path></clipPath><clipPath id="SvgjsClipPath100034310139-71aa-43ab-b105-c0cb97eae9ac"><path d=" M -1.8970416160476349 -0.19190618882772015 L -0.3999999999999999 -0.19190618882772015 L -0.3999999999999999 1.2403096005359724 L -1.8970416160476349 1.2403096005359724 Z"></path></clipPath></defs></svg>