<svg xmlns="http://www.w3.org/2000/svg" version="1.1" xmlns:xlink="http://www.w3.org/1999/xlink" xmlns:svgjs="http://svgjs.dev/svgjs" viewBox="0 0 8.539720871662318 2.2642701211631238"><g transform="matrix(1,0,0,1,2.0064889796752543,0.3781187955823103)"><g><path d=" M 0.9075 0.40349999999999986 Q 0.864 0.31199999999999994 0.7815 0.2617499999999999 Q 0.6990000000000001 0.2114999999999999 0.5895 0.2114999999999999 Q 0.48 0.2114999999999999 0.39225 0.2617499999999999 Q 0.3045 0.31199999999999994 0.25425000000000003 0.40574999999999994 Q 0.20400000000000001 0.49949999999999994 0.20400000000000001 0.6224999999999999 Q 0.20400000000000001 0.7454999999999998 0.25425000000000003 0.8384999999999999 Q 0.3045 0.9314999999999999 0.39225 0.9817499999999999 Q 0.48 1.0319999999999998 0.5895 1.0319999999999998 Q 0.7425 1.0319999999999998 0.8415 0.9404999999999999 Q 0.9405 0.849 0.9570000000000001 0.6929999999999998 L 0.54 0.6929999999999998 L 0.54 0.5819999999999999 L 1.1025 0.5819999999999999 L 1.1025 0.6869999999999998 Q 1.0905 0.8159999999999998 1.0215 0.9232499999999999 Q 0.9525 1.0305 0.84 1.0927499999999999 Q 0.7275 1.1549999999999998 0.5895 1.1549999999999998 Q 0.444 1.1549999999999998 0.324 1.0867499999999999 Q 0.20400000000000001 1.0185 0.13425 0.8969999999999999 Q 0.0645 0.7754999999999999 0.0645 0.6224999999999999 Q 0.0645 0.4694999999999999 0.13425 0.34724999999999984 Q 0.20400000000000001 0.22499999999999987 0.324 0.15674999999999983 Q 0.444 0.0884999999999998 0.5895 0.0884999999999998 Q 0.756 0.0884999999999998 0.88425 0.17099999999999993 Q 1.0125 0.25349999999999984 1.071 0.40349999999999986 L 0.9075 0.40349999999999986 M 1.3350227050781247 0.16349999999999987 Q 1.3080227050781248 0.13649999999999984 1.3080227050781248 0.09749999999999992 Q 1.3080227050781248 0.058499999999999774 1.3350227050781247 0.03149999999999986 Q 1.3620227050781248 0.0044999999999999485 1.4010227050781248 0.0044999999999999485 Q 1.4385227050781249 0.0044999999999999485 1.4647727050781247 0.03149999999999986 Q 1.4910227050781248 0.058499999999999774 1.4910227050781248 0.09749999999999992 Q 1.4910227050781248 0.13649999999999984 1.4647727050781247 0.16349999999999987 Q 1.4385227050781249 0.1904999999999999 1.4010227050781248 0.1904999999999999 Q 1.3620227050781248 0.1904999999999999 1.3350227050781247 0.16349999999999987 M 1.4670227050781248 0.32399999999999984 L 1.4670227050781248 1.146 L 1.3305227050781248 1.146 L 1.3305227050781248 0.32399999999999984 L 1.4670227050781248 0.32399999999999984 M 2.081980224609375 0.4364999999999999 L 1.9094802246093747 0.4364999999999999 L 1.9094802246093747 1.146 L 1.7729802246093747 1.146 L 1.7729802246093747 0.4364999999999999 L 1.6664802246093746 0.4364999999999999 L 1.6664802246093746 0.32399999999999984 L 1.7729802246093747 0.32399999999999984 L 1.7729802246093747 0.26549999999999985 Q 1.7729802246093747 0.12749999999999995 1.8442302246093747 0.06374999999999997 Q 1.9154802246093747 -2.220446049250313e-16 2.0729802246093745 -2.220446049250313e-16 L 2.0729802246093745 0.11399999999999988 Q 1.9829802246093746 0.11399999999999988 1.9462302246093746 0.14924999999999988 Q 1.9094802246093747 0.1844999999999999 1.9094802246093747 0.26549999999999985 L 1.9094802246093747 0.32399999999999984 L 2.081980224609375 0.32399999999999984 L 2.081980224609375 0.4364999999999999 M 2.4554494628906247 0.4364999999999999 L 2.4554494628906247 0.9209999999999999 Q 2.4554494628906247 0.9809999999999999 2.480949462890625 1.00575 Q 2.506449462890625 1.0305 2.5694494628906246 1.0305 L 2.669949462890625 1.0305 L 2.669949462890625 1.146 L 2.5469494628906246 1.146 Q 2.4329494628906247 1.146 2.375949462890625 1.0935 Q 2.318949462890625 1.041 2.318949462890625 0.9209999999999999 L 2.318949462890625 0.4364999999999999 L 2.212449462890625 0.4364999999999999 L 2.212449462890625 0.32399999999999984 L 2.318949462890625 0.32399999999999984 L 2.318949462890625 0.11699999999999999 L 2.4554494628906247 0.11699999999999999 L 2.4554494628906247 0.32399999999999984 L 2.669949462890625 0.32399999999999984 L 2.669949462890625 0.4364999999999999 L 2.4554494628906247 0.4364999999999999 M 3.9434699707031244 0.10799999999999987 L 3.9434699707031244 1.146 L 3.8069699707031246 1.146 L 3.8069699707031246 0.3719999999999999 L 3.461969970703125 1.146 L 3.3659699707031248 1.146 L 3.019469970703125 0.37049999999999994 L 3.019469970703125 1.146 L 2.8829699707031247 1.146 L 2.8829699707031247 0.10799999999999987 L 3.029969970703125 0.10799999999999987 L 3.413969970703125 0.966 L 3.7979699707031247 0.10799999999999987 L 3.9434699707031244 0.10799999999999987 M 4.22250439453125 0.5107499999999999 Q 4.27350439453125 0.41549999999999987 4.36275439453125 0.3629999999999999 Q 4.45200439453125 0.3104999999999999 4.561504394531251 0.3104999999999999 Q 4.66950439453125 0.3104999999999999 4.749004394531251 0.3569999999999999 Q 4.82850439453125 0.40349999999999986 4.867504394531251 0.47399999999999987 L 4.867504394531251 0.32399999999999984 L 5.0055043945312505 0.32399999999999984 L 5.0055043945312505 1.146 L 4.867504394531251 1.146 L 4.867504394531251 0.9929999999999999 Q 4.82700439453125 1.065 4.7467543945312505 1.11225 Q 4.66650439453125 1.1595 4.5600043945312505 1.1595 Q 4.45050439453125 1.1595 4.36200439453125 1.1055 Q 4.27350439453125 1.0514999999999999 4.22250439453125 0.954 Q 4.17150439453125 0.8564999999999999 4.17150439453125 0.7319999999999999 Q 4.17150439453125 0.6059999999999999 4.22250439453125 0.5107499999999999 M 4.83000439453125 0.5714999999999999 Q 4.79250439453125 0.5025 4.728754394531251 0.4657499999999999 Q 4.66500439453125 0.42899999999999994 4.58850439453125 0.42899999999999994 Q 4.5120043945312505 0.42899999999999994 4.44900439453125 0.46499999999999986 Q 4.38600439453125 0.5009999999999999 4.3485043945312505 0.5699999999999998 Q 4.31100439453125 0.6389999999999999 4.31100439453125 0.7319999999999999 Q 4.31100439453125 0.8264999999999999 4.3485043945312505 0.8962499999999999 Q 4.38600439453125 0.966 4.44900439453125 1.0027499999999998 Q 4.5120043945312505 1.0394999999999999 4.58850439453125 1.0394999999999999 Q 4.66500439453125 1.0394999999999999 4.728754394531251 1.0027499999999998 Q 4.79250439453125 0.966 4.83000439453125 0.8962499999999999 Q 4.867504394531251 0.8264999999999999 4.867504394531251 0.7334999999999998 Q 4.867504394531251 0.6404999999999998 4.83000439453125 0.5714999999999999 M 5.54179248046875 0.3577499999999999 Q 5.6220424804687505 0.3104999999999999 5.72854248046875 0.3104999999999999 Q 5.838042480468751 0.3104999999999999 5.927292480468751 0.3629999999999999 Q 6.01654248046875 0.41549999999999987 6.0675424804687506 0.5107499999999999 Q 6.118542480468751 0.6059999999999999 6.118542480468751 0.7319999999999999 Q 6.118542480468751 0.8564999999999999 6.0675424804687506 0.954 Q 6.01654248046875 1.0514999999999999 5.927292480468751 1.1055 Q 5.838042480468751 1.1595 5.72854248046875 1.1595 Q 5.623542480468751 1.1595 5.54329248046875 1.11225 Q 5.46304248046875 1.065 5.42104248046875 0.9944999999999999 L 5.42104248046875 1.536 L 5.28454248046875 1.536 L 5.28454248046875 0.32399999999999984 L 5.42104248046875 0.32399999999999984 L 5.42104248046875 0.4754999999999999 Q 5.461542480468751 0.4049999999999999 5.54179248046875 0.3577499999999999 M 5.94154248046875 0.5699999999999998 Q 5.904042480468751 0.5009999999999999 5.84029248046875 0.46499999999999986 Q 5.77654248046875 0.42899999999999994 5.70004248046875 0.42899999999999994 Q 5.625042480468751 0.42899999999999994 5.56129248046875 0.4657499999999999 Q 5.49754248046875 0.5025 5.459292480468751 0.5722499999999999 Q 5.42104248046875 0.6419999999999999 5.42104248046875 0.7334999999999998 Q 5.42104248046875 0.8264999999999999 5.459292480468751 0.8962499999999999 Q 5.49754248046875 0.966 5.56129248046875 1.0027499999999998 Q 5.625042480468751 1.0394999999999999 5.70004248046875 1.0394999999999999 Q 5.77654248046875 1.0394999999999999 5.84029248046875 1.0027499999999998 Q 5.904042480468751 0.966 5.94154248046875 0.8962499999999999 Q 5.979042480468751 0.8264999999999999 5.979042480468751 0.7319999999999999 Q 5.979042480468751 0.6389999999999999 5.94154248046875 0.5699999999999998" fill="#731dd8" fill-rule="nonzero"></path></g><g></g><g transform="matrix(-1,0,0,1,-2.056337654094441,0)" clip-path="url(&quot;#SvgjsClipPath1001&quot;)"><g clip-path="url(&quot;#SvgjsClipPath10003b6a5dad-d685-4b0a-a79e-c64eb1f46f01&quot;)"><path d=" M -1.546020839012971 0.5611451717370679 L -0.5063417593243569 0.5611451717370679 L -0.5063417593243569 1.1501351711020011 L -1.546020839012971 1.1501351711020011 Z" fill="#0cca4a" transform="matrix(1,0,0,1,0,0)" fill-rule="nonzero"></path></g><g clip-path="url(&quot;#SvgjsClipPath10003b6a5dad-d685-4b0a-a79e-c64eb1f46f01&quot;)"><path d=" M -1.6226651082753412 0.25790468867608957 L -0.42636811033075706 0.25790468867608957 L -0.42636811033075706 0.5644781585969338 L -1.6226651082753412 0.5644781585969338 Z" fill="#0cca4a" transform="matrix(1,0,0,1,0,0)" fill-rule="nonzero"></path></g><g clip-path="url(&quot;#SvgjsClipPath10003b6a5dad-d685-4b0a-a79e-c64eb1f46f01&quot;)"><path d=" M -1.4076297417558132 0.6313867876701502 L -1.4851252933763308 0.7088859464193041 L -1.4851252933763308 0.775257113325724 L -1.341254967720757 0.6313867876701502 L -1.4076297417558132 0.6313867876701502 Z" fill="#731dd8" transform="matrix(1,0,0,1,0,0)" fill-rule="nonzero"></path></g><g clip-path="url(&quot;#SvgjsClipPath10003b6a5dad-d685-4b0a-a79e-c64eb1f46f01&quot;)"><path d=" M -1.2889047098233184 0.6313867876701502 L -1.4851252933763308 0.8276073712231627 L -1.4851252933763308 0.8939785381295826 L -1.2225335429168984 0.6313867876701502 L -1.2889047098233184 0.6313867876701502 Z" fill="#731dd8" transform="matrix(1,0,0,1,0,0)" fill-rule="nonzero"></path></g><g clip-path="url(&quot;#SvgjsClipPath10003b6a5dad-d685-4b0a-a79e-c64eb1f46f01&quot;)"><path d=" M -1.170186892148096 0.6313867876701502 L -1.4851252933763308 0.946325188898385 L -1.4851252933763308 1.0126999629334414 L -1.103815725241676 0.6313867876701502 L -1.170186892148096 0.6313867876701502 Z" fill="#731dd8" transform="matrix(1,0,0,1,0,0)" fill-rule="nonzero"></path></g><g clip-path="url(&quot;#SvgjsClipPath10003b6a5dad-d685-4b0a-a79e-c64eb1f46f01&quot;)"><path d=" M -1.0889615695177284 0.6688828898436413 L -1.4851252933763308 1.0650466137022438 L -1.4851252933763308 1.0836413618219498 L -1.4373452674609808 1.0836413618219498 L -1.0889615695177284 0.7352540567500612 L -1.0889615695177284 0.6688828898436413 Z" fill="#731dd8" transform="matrix(1,0,0,1,0,0)" fill-rule="nonzero"></path></g><g clip-path="url(&quot;#SvgjsClipPath10003b6a5dad-d685-4b0a-a79e-c64eb1f46f01&quot;)"><path d=" M -1.0889615695177284 0.7876043146474999 L -1.3849950095635422 1.0836413618219498 L -1.3186238426571224 1.0836413618219498 L -1.0889615695177284 0.8539754815539198 L -1.0889615695177284 0.7876043146474999 Z" fill="#731dd8" transform="matrix(1,0,0,1,0,0)" fill-rule="nonzero"></path></g><g clip-path="url(&quot;#SvgjsClipPath10003b6a5dad-d685-4b0a-a79e-c64eb1f46f01&quot;)"><path d=" M -1.0889615695177284 0.9063257394513584 L -1.26627719188832 1.0836413618219498 L -1.1999024178532638 1.0836413618219498 L -1.0889615695177284 0.9726969063577783 L -1.0889615695177284 0.9063257394513584 Z" fill="#731dd8" transform="matrix(1,0,0,1,0,0)" fill-rule="nonzero"></path></g><g clip-path="url(&quot;#SvgjsClipPath10003b6a5dad-d685-4b0a-a79e-c64eb1f46f01&quot;)"><path d=" M -1.1475557670844612 1.0836413618219498 L -1.0889615695177284 1.0836413618219498 L -1.0889615695177284 1.025043557126581 L -1.1475557670844612 1.0836413618219498 Z" fill="#731dd8" transform="matrix(1,0,0,1,0,0)" fill-rule="nonzero"></path></g><g clip-path="url(&quot;#SvgjsClipPath10003b6a5dad-d685-4b0a-a79e-c64eb1f46f01&quot;)"><path d=" M -0.9673760845767124 0.6313867876701502 L -0.9673760845767124 0.6918242279699907 L -0.9069386442768719 0.6313867876701502 L -0.9673760845767124 0.6313867876701502 Z" fill="#731dd8" transform="matrix(1,0,0,1,0,0)" fill-rule="nonzero"></path></g><g clip-path="url(&quot;#SvgjsClipPath10003b6a5dad-d685-4b0a-a79e-c64eb1f46f01&quot;)"><path d=" M -0.8545883863794331 0.6313867876701502 L -0.9673760845767124 0.7441744858674294 L -0.9673760845767124 0.8105456527738495 L -0.7882172194730133 0.6313867876701502 L -0.8545883863794331 0.6313867876701502 Z" fill="#731dd8" transform="matrix(1,0,0,1,0,0)" fill-rule="nonzero"></path></g><g clip-path="url(&quot;#SvgjsClipPath10003b6a5dad-d685-4b0a-a79e-c64eb1f46f01&quot;)"><path d=" M -0.9673760845767124 0.862895910671288 L -0.9673760845767124 0.929267077577708 L -0.6694957946691547 0.6313867876701502 L -0.7358669615755745 0.6313867876701502 L -0.9673760845767124 0.862895910671288 Z" fill="#731dd8" transform="matrix(1,0,0,1,0,0)" fill-rule="nonzero"></path></g><g clip-path="url(&quot;#SvgjsClipPath10003b6a5dad-d685-4b0a-a79e-c64eb1f46f01&quot;)"><path d=" M -0.617145536771716 0.6313867876701502 L -0.9673760845767124 0.9816173354751468 L -0.9673760845767124 1.0479885023815667 L -0.5712123607181101 0.6518247785229642 L -0.5712123607181101 0.6313867876701502 L -0.617145536771716 0.6313867876701502 Z" fill="#731dd8" transform="matrix(1,0,0,1,0,0)" fill-rule="nonzero"></path></g><g clip-path="url(&quot;#SvgjsClipPath10003b6a5dad-d685-4b0a-a79e-c64eb1f46f01&quot;)"><path d=" M -0.5712123607181101 0.7041714292917666 L -0.9506786861196571 1.0836413618219498 L -0.8843075192132372 1.0836413618219498 L -0.5712123607181101 0.7705425961981865 L -0.5712123607181101 0.7041714292917666 Z" fill="#731dd8" transform="matrix(1,0,0,1,0,0)" fill-rule="nonzero"></path></g><g clip-path="url(&quot;#SvgjsClipPath10003b6a5dad-d685-4b0a-a79e-c64eb1f46f01&quot;)"><path d=" M -0.5712123607181101 0.8228928540956253 L -0.8319572613157985 1.0836413618219498 L -0.7655860944093785 1.0836413618219498 L -0.5712123607181101 0.8892676281306813 L -0.5712123607181101 0.8228928540956253 Z" fill="#731dd8" transform="matrix(1,0,0,1,0,0)" fill-rule="nonzero"></path></g><g clip-path="url(&quot;#SvgjsClipPath10003b6a5dad-d685-4b0a-a79e-c64eb1f46f01&quot;)"><path d=" M -0.5712123607181101 0.9416142788994838 L -0.71323583651194 1.0836413618219498 L -0.6468646696055198 1.0836413618219498 L -0.5712123607181101 1.0079854458059039 L -0.5712123607181101 0.9416142788994838 Z" fill="#731dd8" transform="matrix(1,0,0,1,0,0)" fill-rule="nonzero"></path></g><g clip-path="url(&quot;#SvgjsClipPath10003b6a5dad-d685-4b0a-a79e-c64eb1f46f01&quot;)"><path d=" M -1.6563376540944406 0.23063840331491398 L -1.6563376540944406 0.5911853390194952 L -1.5704879925524413 0.5911853390194952 L -1.5704879925524413 1.1739891127733135 L -0.4858604829279085 1.1739891127733135 L -0.4858604829279085 0.5911853390194952 L -0.40001082138590927 0.5911853390194952 L -0.40001082138590927 0.23063840331491398 Z M -1.1227567577104596 1.1238500247298773 L -1.5203416902517317 1.1238500247298773 L -1.5203416902517317 0.5911853390194952 L -1.0537451726423273 0.5911853390194952 L -1.0537451726423273 1.1238500247298773 Z M -0.5359995709713454 0.6152448870230722 L -0.5359995709713454 1.1238500247298773 L -1.0025924814521134 1.1238500247298773 L -1.0025924814521134 0.5911853390194952 L -0.5359995709713454 0.5911853390194952 Z M -0.45404560835646146 0.5371325164057614 L -1.6022956528666155 0.5371325164057614 L -1.6022956528666155 0.2846695831568306 L -0.45404200122782545 0.2846695831568306 Z" fill="#0cca4a" transform="matrix(1,0,0,1,0,0)" fill-rule="nonzero"></path></g><g clip-path="url(&quot;#SvgjsClipPath10003b6a5dad-d685-4b0a-a79e-c64eb1f46f01&quot;)"><path d=" M -1.0314603319277698 0.26539669485351547 L -1.050794541417901 0.26255427748817506 L -1.050794541417901 0.24301446166577967 C -1.050794541417901 0.13945379851994738 -0.9723719577378749 -0.008016441514572665 -0.8842317695118765 -0.02610619162520828 C -0.85375153253583 -0.03237538119495596 -0.7961853666304196 -0.027999934159222778 -0.753491392092138 0.07161453025858651 C -0.7292154163703874 0.1282464498472165 -0.7305139826794262 0.17466298113807602 -0.7573474126042555 0.20952948653576337 C -0.7964739369213168 0.2603611432773541 -0.8808771398801932 0.2712691002732787 -0.9461300969093854 0.2712691002732787 C -0.974674527203503 0.2712709593468175 -1.0031852636358387 0.26930885760045986 -1.0314603319277693 0.26539669485351547 Z M -0.8751345910913336 0.01821820505664453 C -0.9305689439727391 0.029595088775277556 -0.9954539738810368 0.13539938593283787 -1.004482616857492 0.22305621892158306 C -0.9438431773540232 0.22890698156952938 -0.8296739488890724 0.22935065839178448 -0.7931950569909947 0.18190970256823877 C -0.7771144775307328 0.16098835647817158 -0.777749332170707 0.12988769337669606 -0.7950851923963733 0.08944095997877839 C -0.8095605996135182 0.05566380742922873 -0.8332594347534733 0.01729838725440897 -0.866210554845329 0.01729838725440897 C -0.8692086710692714 0.0173026874803682 -0.8721986309993836 0.017610868475590048 -0.8751345910913336 0.018218205056644086 Z" fill="#731dd8" transform="matrix(1,0,0,1,0,0)" fill-rule="nonzero"></path></g><g clip-path="url(&quot;#SvgjsClipPath10003b6a5dad-d685-4b0a-a79e-c64eb1f46f01&quot;)"><path d=" M -1.298990241490185 0.20952948653576337 C -1.3258236714150144 0.17466298113807557 -1.3271258448526893 0.12826087836176142 -1.3028462620023027 0.07161453025858651 C -1.2601558945926568 -0.027999934159222778 -1.2026149785877 -0.03236095268041104 -1.1721058845825643 -0.02610619162520828 C -1.0839656963565658 -0.008016441514572665 -1.0055431126765397 0.13946101277721962 -1.0055431126765397 0.24301446166577967 L -1.0055431126765397 0.26255427748817506 L -1.024877322166671 0.26539669485351547 C -1.053153533580065 0.26930949925890174 -1.081665513787863 0.27127160365837333 -1.1102111643136932 0.2712691002732796 C -1.1754569070856113 0.2712691002732787 -1.2598673243017595 0.260357536148718 -1.298990241490185 0.20952948653576337 Z M -1.1812030630031072 0.01821820505664431 C -1.2188542717079558 0.010545842447407715 -1.245500130943702 0.05268792630434811 -1.2612524616980678 0.08944095997877817 C -1.2785883219237337 0.12988769337669606 -1.2792231765637079 0.1609991778640804 -1.2631462042320822 0.18190970256823877 C -1.2266637052053686 0.2293542655204206 -1.112494476740418 0.22889616018362052 -1.051858644365585 0.22305621892158306 C -1.06088728734204 0.13539938593283765 -1.1257651029930655 0.029595088775277334 -1.1812030630031072 0.01821820505664431 Z" fill="#731dd8" transform="matrix(1,0,0,1,0,0)" fill-rule="nonzero"></path></g><g clip-path="url(&quot;#SvgjsClipPath10003b6a5dad-d685-4b0a-a79e-c64eb1f46f01&quot;)"><path d=" M -0.9847577249870819 0.18340732166454807 C -0.9636248486417601 0.207370275558854 -0.9659190793282811 0.24392766163013663 -0.9898820332225878 0.26506053797545887 C -1.0138449871168942 0.28619341432078016 -1.0504023731881769 0.28389918363425887 -1.0715352495334987 0.25993622973995295 C -1.0926681258788205 0.2359732758456461 -1.090373895192299 0.19941588977436348 -1.0664109412979927 0.17828301342904215 C -1.042447987403686 0.15715013708371992 -1.0058906013324038 0.1594443677702412 -0.9847577249870819 0.18340732166454807 Z" fill="#731dd8" transform="matrix(1,0,0,1,0,0)" fill-rule="nonzero"></path></g><g clip-path="url(&quot;#SvgjsClipPath10003b6a5dad-d685-4b0a-a79e-c64eb1f46f01&quot;)"><path d=" M -1.48419104705955 0.6322236415137529 L -1.48419104705955 0.6469623691213416 L -1.4694559265805978 0.6322236415137529 L -1.48419104705955 0.6322236415137529 Z" fill="#212245" transform="matrix(1,0,0,1,0,0)" fill-rule="nonzero"></path></g><g clip-path="url(&quot;#SvgjsClipPath10003b6a5dad-d685-4b0a-a79e-c64eb1f46f01&quot;)"><path d=" M -0.5712123607181101 1.0841716097314742 L -0.5712123607181101 1.0694328821238854 L -0.5859474811970624 1.0841716097314742 L -0.5712123607181101 1.0841716097314742 Z" fill="#212245" transform="matrix(1,0,0,1,0,0)" fill-rule="nonzero"></path></g><g clip-path="url(&quot;#SvgjsClipPath10003b6a5dad-d685-4b0a-a79e-c64eb1f46f01&quot;)"><path d=" M -1.0537415655136915 0.22166747439663884 L -1.0537415655136915 0.4895256326649502 L -1.0537415655136915 0.7843975772899017 L -1.0537415655136915 1.0169599818528154 L -1.0537415655136915 1.1739674700014966 L -1.0171941381715257 1.1739674700014966 L -1.0025924814521132 1.1739674700014966 L -1.0025924814521132 1.118890222855077 L -1.0025924814521132 0.8240218853587615 L -1.0025924814521132 0.5914558736672118 L -1.0025924814521132 0.4518239241591947 L -1.0025924814521132 0.22166747439663884 L -1.0537415655136915 0.22166747439663884 Z" fill="#731dd8" transform="matrix(1,0,0,1,0,0)" fill-rule="nonzero"></path></g><g clip-path="url(&quot;#SvgjsClipPath10003b6a5dad-d685-4b0a-a79e-c64eb1f46f01&quot;)"><path d=" M -1.5704699569092597 0.5911853390194953 L -0.48586769718518097 0.5911853390194953 L -0.48586769718518097 0.6651459045765188 L -1.5704699569092597 0.6651459045765188 Z" fill="#731dd8" transform="matrix(1,0,0,1,0,0)" fill-rule="nonzero"></path></g></g></g><defs><clipPath id="SvgjsClipPath1001"><path d=" M -1.6563376540944406 -0.027967470001496797 h 1.2563376540944404 v 1.2019349400029935 h -1.2563376540944404 Z"></path></clipPath><clipPath id="SvgjsClipPath10003b6a5dad-d685-4b0a-a79e-c64eb1f46f01"><path d=" M -1.6563376540944406 -0.027967470001496797 L -0.40000000000000013 -0.027967470001496797 L -0.40000000000000013 1.1739674700014966 L -1.6563376540944406 1.1739674700014966 Z"></path></clipPath></defs></svg>